<svg width="256" height="80" viewBox="0 0 256 80" fill="none" xmlns="http://www.w3.org/2000/svg">
<path d="M128.763 59.7807V39.628C128.763 37.8734 128.6 36.1439 128.274 34.4395C127.973 32.7099 127.422 31.1308 126.62 29.7021C125.843 28.2733 124.765 27.1329 123.386 26.2806C122.008 25.4284 120.253 25.0023 118.122 25.0023C116.568 25.0023 115.127 25.2655 113.799 25.7918C112.495 26.2932 111.367 27.0953 110.415 28.1981C109.462 29.276 108.71 30.6671 108.159 32.3716C107.632 34.076 107.369 36.1188 107.369 38.5001L102.707 36.9209C102.707 33.111 103.409 29.8023 104.813 26.995C106.216 24.1626 108.196 21.9694 110.753 20.4153C113.335 18.8612 116.418 18.0842 120.002 18.0842C122.709 18.0842 125.003 18.5228 126.883 19.4001C128.763 20.2774 130.304 21.4304 131.507 22.8592C132.736 24.2629 133.676 25.8169 134.327 27.5214C135.004 29.2258 135.468 30.9303 135.718 32.6347C135.969 34.3392 136.094 35.8933 136.094 37.2969V59.7807H128.763ZM100 59.7807V19.1746H106.505V30.454H107.369V59.7807H100Z" fill="#008090"/>
<path d="M155.11 60.9087C152.102 60.9087 149.57 60.3572 147.515 59.2543C145.485 58.1264 143.943 56.6475 142.89 54.8177C141.863 52.9879 141.349 50.9702 141.349 48.7644C141.349 46.684 141.725 44.8667 142.477 43.3127C143.254 41.7335 144.369 40.4176 145.823 39.3648C147.277 38.287 149.044 37.4348 151.124 36.8082C152.979 36.2818 155.072 35.8181 157.403 35.417C159.759 35.016 162.178 34.6525 164.66 34.3267C167.141 33.9757 169.535 33.6374 171.841 33.3115L169.247 34.8154C169.297 31.4065 168.595 28.8874 167.141 27.2582C165.687 25.6289 163.193 24.8143 159.659 24.8143C157.353 24.8143 155.285 25.3407 153.455 26.3934C151.651 27.4462 150.385 29.1632 149.658 31.5444L142.853 29.4765C143.83 25.9422 145.723 23.16 148.53 21.1297C151.337 19.0743 155.06 18.0466 159.697 18.0466C163.356 18.0466 166.515 18.6858 169.171 19.9641C171.853 21.2425 173.796 23.2226 174.999 25.9046C175.626 27.183 176.014 28.5616 176.165 30.0405C176.315 31.5193 176.39 33.0734 176.39 34.7026V59.7807H169.961V50.2683L171.315 51.3211C169.71 54.5295 167.567 56.9358 164.885 58.54C162.228 60.1191 158.97 60.9087 155.11 60.9087ZM156.313 54.8929C158.619 54.8929 160.612 54.4793 162.291 53.6522C163.995 52.825 165.361 51.7472 166.389 50.4187C167.417 49.0903 168.094 47.6866 168.419 46.2077C168.795 44.9795 169.009 43.6009 169.059 42.0719C169.109 40.5429 169.134 39.3523 169.134 38.5001L171.578 39.44C169.272 39.7909 167.078 40.1168 164.998 40.4176C162.918 40.6933 161 40.9816 159.246 41.2823C157.491 41.5831 155.912 41.934 154.508 42.3351C153.43 42.7111 152.44 43.1748 151.538 43.7262C150.636 44.2526 149.909 44.9294 149.357 45.7565C148.831 46.5586 148.568 47.5487 148.568 48.7268C148.568 49.8046 148.831 50.8198 149.357 51.7723C149.909 52.6997 150.748 53.4517 151.876 54.0282C153.029 54.6047 154.508 54.8929 156.313 54.8929Z" fill="#008090"/>
<path d="M232.518 59.7807L232.555 34.1387C232.555 31.1559 231.778 28.8248 230.224 27.1454C228.67 25.466 226.627 24.6263 224.096 24.6263C222.592 24.6263 221.188 24.9772 219.885 25.6791C218.606 26.3558 217.553 27.4086 216.726 28.8373C215.924 30.241 215.523 32.0206 215.523 34.1763L211.876 32.5219C211.826 29.6645 212.427 27.1579 213.681 25.0023C214.934 22.8216 216.639 21.1297 218.794 19.9265C220.975 18.7234 223.419 18.1218 226.126 18.1218C230.437 18.1218 233.796 19.4252 236.202 22.032C238.634 24.6388 239.849 28.1104 239.849 32.4467L239.812 59.7807H232.518ZM183.903 59.7807V19.1746H190.37V30.454H191.235V59.7807H183.903ZM208.267 59.7807V34.3643C208.267 31.3313 207.49 28.9501 205.936 27.2206C204.407 25.4911 202.351 24.6263 199.769 24.6263C197.213 24.6263 195.145 25.5036 193.566 27.2582C192.012 29.0128 191.235 31.3188 191.235 34.1763L187.55 31.9204C187.55 29.2885 188.177 26.9323 189.43 24.8519C190.708 22.7715 192.425 21.1297 194.581 19.9265C196.762 18.7234 199.231 18.1218 201.988 18.1218C204.795 18.1218 207.214 18.7234 209.244 19.9265C211.274 21.1046 212.829 22.784 213.906 24.9647C214.984 27.1203 215.523 29.6519 215.523 32.5595L215.485 59.7807H208.267Z" fill="#008090"/>
<path d="M248.087 12.2565V5H255.381V12.2565H248.087ZM248.087 59.7807V19.1746H255.381V59.7807H248.087Z" fill="#008090"/>
<path fill-rule="evenodd" clip-rule="evenodd" d="M0 38.4C0 24.9587 0 18.2381 2.61584 13.1042C4.9168 8.58834 8.58834 4.9168 13.1042 2.61584C18.2381 0 24.9587 0 38.4 0H41.6C55.0413 0 61.7619 0 66.8958 2.61584C71.4117 4.9168 75.0832 8.58834 77.3842 13.1042C80 18.2381 80 24.9587 80 38.4V41.6C80 55.0413 80 61.7619 77.3842 66.8958C75.0832 71.4117 71.4117 75.0832 66.8958 77.3842C61.7619 80 55.0413 80 41.6 80H38.4C24.9587 80 18.2381 80 13.1042 77.3842C8.58834 75.0832 4.9168 71.4117 2.61584 66.8958C0 61.7619 0 55.0413 0 41.6V38.4ZM33.0582 18.8461C23.5349 18.8461 15.7335 26.2179 15.0488 35.5664C15.0167 35.7784 15 35.9954 15 36.2164V36.7323V36.9043L15 55.4784C15 57.853 16.925 59.778 19.2996 59.778C21.6741 59.778 23.5991 57.853 23.5991 55.4784L23.5991 36.9043C23.5991 31.6802 27.8341 27.4453 33.0582 27.4453C38.2822 27.4453 42.5172 31.6802 42.5172 36.9043L42.5172 37.0763L42.5172 37.4202L42.5172 41.3758C42.5172 43.7504 44.4422 45.6754 46.8168 45.6754C49.1913 45.6754 51.1163 43.7504 51.1163 41.3758L51.1163 37.4202L51.1163 37.0763L51.1163 36.9043C51.1163 26.931 43.0314 18.8461 33.0582 18.8461ZM65.2189 24.5216C65.2189 22.147 63.2939 20.222 60.9193 20.222C58.5447 20.222 56.6197 22.147 56.6197 24.5216L56.6197 43.0957V43.0961C56.6195 48.32 52.3846 52.5547 47.1607 52.5547C41.9366 52.5547 37.7017 48.3198 37.7017 43.0957V42.9237V42.5798L37.7017 38.6242C37.7017 36.2496 35.7767 34.3246 33.4021 34.3246C31.0275 34.3246 29.1025 36.2496 29.1025 38.6242L29.1025 42.5798L29.1025 42.9237L29.1025 43.0957C29.1025 53.069 37.1875 61.1539 47.1607 61.1539C56.684 61.1539 64.4854 53.7821 65.1701 44.4336C65.2022 44.2216 65.2189 44.0046 65.2189 43.7837L65.2189 43.2677L65.2189 43.1122L65.2189 43.0957V24.5216Z" fill="#008090"/>
</svg>
